<?xml version="1.0" encoding="UTF-8" standalone="no"?>
<!-- Created with Inkscape (http://www.inkscape.org/) -->

<svg
   width="74.059677mm"
   height="136.99275mm"
   viewBox="0 0 74.059676 136.99275"
   version="1.1"
   id="svg1"
   inkscape:version="1.4.3 (0d15f75042, 2025-12-25)"
   sodipodi:docname="marker-orange.svg"
   xmlns:inkscape="http://www.inkscape.org/namespaces/inkscape"
   xmlns:sodipodi="http://sodipodi.sourceforge.net/DTD/sodipodi-0.dtd"
   xmlns="http://www.w3.org/2000/svg"
   xmlns:svg="http://www.w3.org/2000/svg">
  <sodipodi:namedview
     id="namedview1"
     pagecolor="#505050"
     bordercolor="#eeeeee"
     borderopacity="1"
     inkscape:showpageshadow="0"
     inkscape:pageopacity="0"
     inkscape:pagecheckerboard="0"
     inkscape:deskcolor="#505050"
     inkscape:document-units="mm"
     showguides="true"
     inkscape:zoom="4"
     inkscape:cx="195.125"
     inkscape:cy="239.375"
     inkscape:window-width="1908"
     inkscape:window-height="1023"
     inkscape:window-x="0"
     inkscape:window-y="0"
     inkscape:window-maximized="1"
     inkscape:current-layer="layer1" />
  <defs
     id="defs1">
    <inkscape:path-effect
       effect="mirror_symmetry"
       start_point="34.576172,92.487358"
       end_point="34.576172,141.83008"
       center_point="34.576172,117.15872"
       id="path-effect8"
       is_visible="true"
       lpeversion="1.2"
       lpesatellites=""
       mode="free"
       discard_orig_path="false"
       fuse_paths="true"
       oposite_fuse="false"
       split_items="false"
       split_open="false"
       link_styles="false" />
    <filter
       style="color-interpolation-filters:sRGB"
       inkscape:label="Color Shift"
       id="filter438"
       x="-0.0049710185"
       y="-0.0026670734"
       width="1.0099812"
       height="1.0053066">
      <feColorMatrix
         type="hueRotate"
         values="322"
         result="color1"
         id="feColorMatrix437" />
      <feColorMatrix
         type="saturate"
         values="1"
         result="fbSourceGraphic"
         id="feColorMatrix438" />
      <feColorMatrix
         result="fbSourceGraphicAlpha"
         in="fbSourceGraphic"
         values="0 0 0 -1 0 0 0 0 -1 0 0 0 0 -1 0 0 0 0 1 0"
         id="feColorMatrix1" />
      <feColorMatrix
         id="feColorMatrix2"
         type="hueRotate"
         values="39"
         result="color1"
         in="fbSourceGraphic" />
      <feColorMatrix
         id="feColorMatrix3"
         type="saturate"
         values="1"
         result="fbSourceGraphic" />
      <feColorMatrix
         result="fbSourceGraphicAlpha"
         in="fbSourceGraphic"
         values="0 0 0 -1 0 0 0 0 -1 0 0 0 0 -1 0 0 0 0 1 0"
         id="feColorMatrix4" />
      <feColorMatrix
         id="feColorMatrix5"
         type="hueRotate"
         values="39"
         result="color1"
         in="fbSourceGraphic" />
      <feColorMatrix
         id="feColorMatrix6"
         type="saturate"
         values="1"
         result="fbSourceGraphic" />
      <feColorMatrix
         result="fbSourceGraphicAlpha"
         in="fbSourceGraphic"
         values="0 0 0 -1 0 0 0 0 -1 0 0 0 0 -1 0 0 0 0 1 0"
         id="feColorMatrix13" />
      <feColorMatrix
         id="feColorMatrix14"
         type="hueRotate"
         values="224"
         result="color1"
         in="fbSourceGraphic" />
      <feColorMatrix
         id="feColorMatrix15"
         type="saturate"
         values="1"
         result="color2" />
    </filter>
  </defs>
  <g
     inkscape:label="Warstwa 1"
     inkscape:groupmode="layer"
     id="layer1"
     transform="matrix(1.404826,0,0,1.404826,-86.095225,-114.15721)">
    <g
       id="g9"
       inkscape:label="Obrys">
      <path
         id="path2"
         style="display:inline;fill:none;stroke:#000000;stroke-dashoffset:23.0551"
         sodipodi:type="inkscape:offset"
         inkscape:radius="-7.9558125"
         inkscape:original="M 86.384766 75.978516 C 78.10219 76.260933 70.021313 80.048503 64.503906 86.232422 C 57.346623 94.14153 54.183393 105.68761 56.962891 116.0625 C 61.358889 130.30408 65.989136 144.48144 71.107422 158.48242 C 73.869163 165.85971 76.638726 173.26323 80.232422 180.28516 C 81.362072 182.30194 82.420217 184.49403 84.265625 185.96094 C 85.064991 186.63459 86.230943 186.39211 86.914062 185.67773 C 88.953011 183.75551 90.259463 181.21561 91.648438 178.81641 C 96.386585 170.01341 100.28503 160.79375 104.16992 151.5918 C 108.89873 140.20717 113.42465 128.73644 117.74023 117.1875 C 120.43541 109.56219 119.58923 100.90871 115.91992 93.751953 C 111.68742 85.332625 103.70199 78.770341 94.449219 76.730469 C 91.810218 76.124432 89.089786 75.882658 86.384766 75.978516 z "
         d="m 86.65625,83.929687 c -6.03751,0.205866 -12.194116,3.090982 -16.216797,7.59961 a 7.956608,7.956608 0 0 1 -0.03711,0.04102 c -5.346097,5.907669 -7.746973,14.909678 -5.757813,22.394528 4.346378,14.07123 8.907852,28.0322 13.931641,41.77539 0.0012,0.003 0.0027,0.006 0.0039,0.01 2.253705,6.02 4.533808,11.76638 7.070313,17.23047 4.040532,-7.77473 7.603456,-15.98919 11.171875,-24.44141 l 0.002,-0.004 c 4.676801,-11.25957 9.151021,-22.60348 13.419921,-34.02344 1.88026,-5.34439 1.2996,-11.85708 -1.4043,-17.130861 a 7.956608,7.956608 0 0 1 -0.0273,-0.05469 C 105.63853,91.012476 99.425737,85.974752 92.736328,84.5 a 7.956608,7.956608 0 0 1 -0.06836,-0.01563 c -1.926426,-0.442397 -3.95877,-0.627092 -6.001953,-0.554688 a 7.956608,7.956608 0 0 1 -0.0098,0 z"
         inkscape:label="Obrys wewnetrzny" />
      <path
         id="path3"
         style="fill:none;stroke:#000000;stroke-dashoffset:23.0551"
         sodipodi:type="inkscape:offset"
         inkscape:radius="-5.8031836"
         inkscape:original="M 86.384766 75.978516 C 78.10219 76.260933 70.021313 80.048503 64.503906 86.232422 C 57.346623 94.14153 54.183393 105.68761 56.962891 116.0625 C 61.358889 130.30408 65.989136 144.48144 71.107422 158.48242 C 73.869163 165.85971 76.638726 173.26323 80.232422 180.28516 C 81.362072 182.30194 82.420217 184.49403 84.265625 185.96094 C 85.064991 186.63459 86.230943 186.39211 86.914062 185.67773 C 88.953011 183.75551 90.259463 181.21561 91.648438 178.81641 C 96.386585 170.01341 100.28503 160.79375 104.16992 151.5918 C 108.89873 140.20717 113.42465 128.73644 117.74023 117.1875 C 120.43541 109.56219 119.58923 100.90871 115.91992 93.751953 C 111.68742 85.332625 103.70199 78.770341 94.449219 76.730469 C 91.810218 76.124432 89.089786 75.882658 86.384766 75.978516 z "
         d="m 86.589844,81.777344 a 5.8037639,5.8037639 0 0 1 -0.0078,0.002 c -6.644964,0.226578 -13.320933,3.35449 -17.748047,8.316406 a 5.8037639,5.8037639 0 0 1 -0.02734,0.03125 c -5.835544,6.448528 -8.443891,16.136717 -6.242188,24.402347 4.356407,14.10645 8.933936,28.11554 13.978516,41.91797 0.0023,0.006 0.0055,0.0115 0.0078,0.0176 0.003,0.008 0.0048,0.0171 0.0078,0.0254 2.742243,7.32508 5.431139,14.46047 8.791015,21.04493 0.07648,0.13611 0.08679,0.11681 0.160157,0.24609 0.346115,-0.58215 0.668014,-1.0987 1.058593,-1.77344 4.547535,-8.45746 8.37144,-17.47421 12.242188,-26.64258 l 0.01367,-0.0312 c 4.686791,-11.28451 9.171131,-22.6539 13.449221,-34.0996 2.10033,-5.96101 1.44743,-13.05093 -1.51758,-18.833989 a 5.8037639,5.8037639 0 0 1 -0.0215,-0.04102 C 107.27399,89.475952 100.5822,84.026095 93.199219,82.398437 a 5.8037639,5.8037639 0 0 1 -0.04883,-0.01172 c -2.11923,-0.486674 -4.338289,-0.688126 -6.560547,-0.609375 z"
         inkscape:label="Obrys zewnetrzny" />
      <path
         style="display:inline;fill:#f9f9f9;stroke:#000000;stroke-width:1.73609;stroke-dashoffset:23.0551"
         d="m 319.7039,660.18788 c -18.08074,-37.76961 -45.84616,-115.01989 -76.48123,-212.78973 -6.83731,-21.82081 -7.93604,-27.86479 -7.43184,-40.88135 1.31761,-34.01523 19.26681,-65.16659 47.19551,-81.90918 27.2526,-16.33729 60.19465,-17.84709 88.39087,-4.05115 19.91812,9.74561 35.80632,25.71074 45.77598,45.99766 8.10856,16.49983 11.19585,34.66792 8.88572,52.29064 -1.04438,7.96697 -2.48899,12.81179 -8.73997,29.3114 -24.7983,65.45576 -51.3217,130.29202 -70.71932,172.87289 -7.74612,17.00395 -22.40995,46.16377 -23.21475,46.16377 -0.16919,0 -1.81663,-3.15223 -3.66097,-7.00495 z m 10.31941,-14.09832 c 16.62043,-33.22041 35.70161,-77.1949 59.80591,-137.82872 13.69905,-34.45965 28.45709,-73.13473 30.19196,-79.12141 3.43643,-11.85838 3.70248,-27.91164 0.68324,-41.22594 -5.17575,-22.82417 -19.36003,-43.33493 -39.68104,-57.37961 -22.3633,-15.45618 -51.46672,-19.58743 -77.6035,-11.01585 -25.81725,8.46678 -46.09542,27.6938 -56.46332,53.53644 -2.52403,6.29131 -4.59145,13.39902 -5.92533,20.37111 -0.87298,4.563 -1.00899,6.81511 -0.99868,16.53628 0.0151,14.21433 0.10951,14.68406 8.01213,39.85081 17.95074,57.16612 36.78051,112.75445 50.06181,147.79 10.78403,28.44785 24.64326,60.84465 25.73933,60.16724 0.2657,-0.16421 3.04557,-5.42037 6.17749,-11.68035 z"
         id="path4"
         transform="scale(0.26458333)"
         inkscape:label="Bialy" />
    </g>
    <g
       id="g425"
       inkscape:label="Kolor">
      <path
         style="display:inline;fill:#ff9c0d;fill-opacity:1;stroke:#000000;stroke-width:1.73609;stroke-dashoffset:23.0551"
         d="m 322.56285,646.17798 c -0.51464,-1.20003 -2.62881,-6.10924 -4.69815,-10.90935 -17.3978,-40.3566 -40.60315,-106.38475 -66.78396,-190.02601 -5.98961,-19.13535 -6.67475,-22.26253 -7.02521,-32.06537 -0.41655,-11.65133 0.93552,-21.02874 4.67674,-32.43595 10.81052,-32.96201 37.36085,-55.73072 70.70045,-60.63043 7.56404,-1.11163 21.02793,-0.68033 28.55003,0.91458 32.38388,6.86637 59.81262,33.23745 67.97932,65.35803 3.33958,13.13495 3.40667,29.01182 0.17241,40.80081 -2.33121,8.49733 -29.19767,77.63604 -46.58813,119.89086 -9.23899,22.44863 -22.15698,52.29999 -30.31349,70.04951 -4.78523,10.41321 -15.06127,31.23519 -15.41515,31.23519 -0.17553,0 -0.74022,-0.98184 -1.25486,-2.18187 z"
         id="path5"
         transform="scale(0.26458333)"
         inkscape:label="Kolor zewnetrzny" />
      <path
         id="path6"
         style="fill:#ff861b;fill-opacity:1;stroke:none;stroke-width:1.73609;stroke-dashoffset:23.0551"
         sodipodi:type="inkscape:offset"
         inkscape:radius="-9.7235556"
         inkscape:original="M 333.72266 319.55273 C 328.47092 319.3845 323.21561 319.55551 319.43359 320.11133 C 286.09399 325.01104 259.54294 347.78018 248.73242 380.74219 C 244.9912 392.1494 243.63814 401.5264 244.05469 413.17773 C 244.40515 422.98057 245.09047 426.10684 251.08008 445.24219 C 277.26089 528.88345 300.46743 594.91293 317.86523 635.26953 C 319.93457 640.06964 322.04786 644.9777 322.5625 646.17773 C 323.07714 647.37776 323.64283 648.35938 323.81836 648.35938 C 324.17224 648.35937 334.44719 627.53821 339.23242 617.125 C 347.38893 599.37548 360.30788 569.52285 369.54688 547.07422 C 386.93734 504.8194 413.80356 435.68092 416.13477 427.18359 C 419.36903 415.3946 419.30247 399.51776 415.96289 386.38281 C 407.79619 354.26223 380.3663 327.89176 347.98242 321.02539 C 344.22137 320.22794 338.9744 319.72097 333.72266 319.55273 z "
         d="m 333.41211,329.27148 c -4.83351,-0.15483 -9.7806,0.0518 -12.56445,0.46094 -29.78691,4.37759 -53.12047,24.29682 -62.875,54.03906 -3.46583,10.56754 -4.58421,18.34478 -4.20118,29.0586 0.33693,9.42429 0.62531,10.45881 6.58789,29.50781 25.01267,79.90932 47.18216,143.05122 64.0586,183.18555 2.15548,-4.44968 4.48136,-9.20101 5.97851,-12.45899 8.05587,-17.5305 20.97867,-47.38726 30.15821,-69.6914 8.65557,-21.03106 19.70833,-48.85106 28.86914,-72.42578 4.5804,-11.78736 8.69177,-22.51931 11.78711,-30.79493 3.09533,-8.27561 5.33471,-14.76767 5.54687,-15.54101 2.63595,-9.60811 2.66734,-24.48072 -0.21875,-35.83203 -7.19863,-28.31307 -32.04214,-52.19252 -60.57422,-58.24219 -2.78399,-0.59029 -7.71864,-1.11077 -12.55273,-1.26563 z"
         transform="scale(0.26458333)"
         inkscape:label="Kolor wewnetrzny" />
    </g>
  </g>
</svg>
