<?xml version="1.0" encoding="UTF-8" standalone="no"?>
<!-- Created with Inkscape (http://www.inkscape.org/) -->

<svg
   width="40.697361mm"
   height="40.697361mm"
   viewBox="0 0 40.697361 40.697361"
   version="1.1"
   id="svg1"
   inkscape:version="1.4.3 (0d15f75042, 2025-12-25)"
   sodipodi:docname="settings-pressed.svg"
   xmlns:inkscape="http://www.inkscape.org/namespaces/inkscape"
   xmlns:sodipodi="http://sodipodi.sourceforge.net/DTD/sodipodi-0.dtd"
   xmlns="http://www.w3.org/2000/svg"
   xmlns:svg="http://www.w3.org/2000/svg">
  <sodipodi:namedview
     id="namedview1"
     pagecolor="#505050"
     bordercolor="#eeeeee"
     borderopacity="1"
     inkscape:showpageshadow="0"
     inkscape:pageopacity="0"
     inkscape:pagecheckerboard="0"
     inkscape:deskcolor="#505050"
     inkscape:document-units="mm"
     inkscape:zoom="3.0431134"
     inkscape:cx="119.94295"
     inkscape:cy="64.243417"
     inkscape:window-width="1116"
     inkscape:window-height="1023"
     inkscape:window-x="0"
     inkscape:window-y="0"
     inkscape:window-maximized="1"
     inkscape:current-layer="g20" />
  <defs
     id="defs1">
    <inkscape:path-effect
       effect="gears"
       id="path-effect20"
       is_visible="true"
       lpeversion="1"
       teeth="11"
       phi="20"
       min_radius="8.2" />
    <inkscape:path-effect
       effect="fillet_chamfer"
       id="path-effect27"
       is_visible="true"
       lpeversion="1"
       nodesatellites_param="F,0,0,1,0,0,0,1 @ F,0,0,1,0,1.3229166,0,1 @ F,0,0,1,0,1.3229166,0,1 @ F,0,0,1,0,1.3229166,0,1 @ F,0,0,1,0,1.3229166,0,1 @ F,0,0,1,0,1.3229166,0,1 @ F,0,0,1,0,1.3229166,0,1"
       radius="5"
       unit="px"
       method="auto"
       mode="F"
       chamfer_steps="1"
       flexible="false"
       use_knot_distance="true"
       apply_no_radius="true"
       apply_with_radius="true"
       only_selected="false"
       hide_knots="false" />
    <inkscape:path-effect
       effect="mirror_symmetry"
       start_point="114.72853,135.26732"
       end_point="114.72808,154.46969"
       center_point="114.72831,144.86851"
       id="path-effect25"
       is_visible="true"
       lpeversion="1.2"
       lpesatellites=""
       mode="free"
       discard_orig_path="false"
       fuse_paths="true"
       oposite_fuse="false"
       split_items="false"
       split_open="false"
       link_styles="false" />
    <inkscape:path-effect
       effect="fillet_chamfer"
       id="path-effect23"
       is_visible="true"
       lpeversion="1"
       nodesatellites_param="F,0,0,1,0,0,0,1 @ F,0,0,1,0,1.8520833,0,1 @ F,0,0,1,0,1.8520833,0,1 @ F,0,0,1,0,1.8520833,0,1"
       radius="7"
       unit="px"
       method="auto"
       mode="F"
       chamfer_steps="1"
       flexible="false"
       use_knot_distance="true"
       apply_no_radius="true"
       apply_with_radius="true"
       only_selected="false"
       hide_knots="false" />
    <inkscape:path-effect
       effect="fillet_chamfer"
       id="path-effect21"
       is_visible="true"
       lpeversion="1"
       nodesatellites_param="F,0,0,1,0,12.031249,0,1 @ F,0,0,1,0,12.031249,0,1 @ F,0,0,1,0,12.031249,0,1 @ F,0,0,1,0,12.031249,0,1"
       radius="12.03125"
       unit="mm"
       method="auto"
       mode="F"
       chamfer_steps="1"
       flexible="false"
       use_knot_distance="true"
       apply_no_radius="true"
       apply_with_radius="true"
       only_selected="false"
       hide_knots="false" />
    <inkscape:path-effect
       effect="fillet_chamfer"
       id="path-effect16"
       is_visible="true"
       lpeversion="1"
       nodesatellites_param="F,0,0,1,0,0,0,1 @ F,0,0,1,0,1.3229166,0,1 @ F,0,0,1,0,1.3229166,0,1 @ F,0,0,1,0,1.3229166,0,1 @ F,0,0,1,0,1.3229166,0,1 @ F,0,0,1,0,1.3229166,0,1 @ F,0,0,1,0,1.3229166,0,1"
       radius="5"
       unit="px"
       method="auto"
       mode="F"
       chamfer_steps="1"
       flexible="false"
       use_knot_distance="true"
       apply_no_radius="true"
       apply_with_radius="true"
       only_selected="false"
       hide_knots="false" />
    <inkscape:path-effect
       effect="mirror_symmetry"
       start_point="114.72853,135.26732"
       end_point="114.72808,154.46969"
       center_point="114.72831,144.86851"
       id="path-effect14"
       is_visible="true"
       lpeversion="1.2"
       lpesatellites=""
       mode="free"
       discard_orig_path="false"
       fuse_paths="true"
       oposite_fuse="false"
       split_items="false"
       split_open="false"
       link_styles="false" />
    <inkscape:path-effect
       effect="fillet_chamfer"
       id="path-effect12"
       is_visible="true"
       lpeversion="1"
       nodesatellites_param="F,0,0,1,0,0,0,1 @ F,0,0,1,0,1.8520833,0,1 @ F,0,0,1,0,1.8520833,0,1 @ F,0,0,1,0,1.8520833,0,1"
       radius="7"
       unit="px"
       method="auto"
       mode="F"
       chamfer_steps="1"
       flexible="false"
       use_knot_distance="true"
       apply_no_radius="true"
       apply_with_radius="true"
       only_selected="false"
       hide_knots="false" />
    <inkscape:path-effect
       effect="fillet_chamfer"
       id="path-effect10"
       is_visible="true"
       lpeversion="1"
       nodesatellites_param="F,0,0,1,0,12.031249,0,1 @ F,0,0,1,0,12.031249,0,1 @ F,0,0,1,0,12.031249,0,1 @ F,0,0,1,0,12.031249,0,1"
       radius="12.03125"
       unit="mm"
       method="auto"
       mode="F"
       chamfer_steps="1"
       flexible="false"
       use_knot_distance="true"
       apply_no_radius="true"
       apply_with_radius="true"
       only_selected="false"
       hide_knots="false" />
    <inkscape:path-effect
       effect="fillet_chamfer"
       id="path-effect8"
       is_visible="true"
       lpeversion="1"
       nodesatellites_param="F,0,0,1,0,0,0,1 @ F,0,0,1,0,1.8520833,0,1 @ F,0,0,1,0,1.8520833,0,1 @ F,0,0,1,0,1.8520833,0,1"
       radius="7"
       unit="px"
       method="auto"
       mode="F"
       chamfer_steps="1"
       flexible="false"
       use_knot_distance="true"
       apply_no_radius="true"
       apply_with_radius="true"
       only_selected="false"
       hide_knots="false" />
    <inkscape:path-effect
       effect="fillet_chamfer"
       id="path-effect7"
       is_visible="true"
       lpeversion="1"
       nodesatellites_param="F,0,0,1,0,0,0,1 @ F,0,0,1,0,1.3229166,0,1 @ F,0,0,1,0,1.3229166,0,1 @ F,0,0,1,0,1.3229166,0,1 @ F,0,0,1,0,1.3229166,0,1 @ F,0,0,1,0,1.3229166,0,1 @ F,0,0,1,0,1.3229166,0,1"
       radius="5"
       unit="px"
       method="auto"
       mode="F"
       chamfer_steps="1"
       flexible="false"
       use_knot_distance="true"
       apply_no_radius="true"
       apply_with_radius="true"
       only_selected="false"
       hide_knots="false" />
    <inkscape:path-effect
       effect="mirror_symmetry"
       start_point="114.72853,135.26732"
       end_point="114.72808,154.46969"
       center_point="114.72831,144.86851"
       id="path-effect6"
       is_visible="true"
       lpeversion="1.2"
       lpesatellites=""
       mode="free"
       discard_orig_path="false"
       fuse_paths="true"
       oposite_fuse="false"
       split_items="false"
       split_open="false"
       link_styles="false" />
    <inkscape:path-effect
       effect="fillet_chamfer"
       id="path-effect5"
       is_visible="true"
       lpeversion="1"
       nodesatellites_param="F,0,0,1,0,1.2836298,0,1 @ F,0,0,1,0,1.6607595,0,1 @ F,0,0,1,0,0.98763701,0,1"
       radius="0"
       unit="px"
       method="auto"
       mode="F"
       chamfer_steps="1"
       flexible="false"
       use_knot_distance="true"
       apply_no_radius="true"
       apply_with_radius="true"
       only_selected="false"
       hide_knots="false" />
    <inkscape:path-effect
       effect="fillet_chamfer"
       id="path-effect3"
       is_visible="true"
       lpeversion="1"
       nodesatellites_param="F,0,0,1,0,12.031249,0,1 @ F,0,0,1,0,12.031249,0,1 @ F,0,0,1,0,12.031249,0,1 @ F,0,0,1,0,12.031249,0,1"
       radius="12.03125"
       unit="mm"
       method="auto"
       mode="F"
       chamfer_steps="1"
       flexible="false"
       use_knot_distance="true"
       apply_no_radius="true"
       apply_with_radius="true"
       only_selected="false"
       hide_knots="false" />
  </defs>
  <g
     inkscape:label="Ustawienia"
     inkscape:groupmode="layer"
     id="g5"
     transform="translate(-94.379393,-126.46437)"
     style="display:none">
    <path
       style="fill:#ffffff;fill-opacity:1;stroke:#000000;stroke-width:0.161;stroke-dashoffset:87.1374"
       id="path1"
       width="70.003571"
       height="70.003571"
       x="79.726288"
       y="111.81126"
       ry="0"
       inkscape:path-effect="#path-effect10"
       sodipodi:type="rect"
       rx="0"
       d="m 91.757537,111.81126 h 45.941073 a 12.031249,12.031249 45 0 1 12.03125,12.03125 v 45.94107 a 12.031249,12.031249 135 0 1 -12.03125,12.03125 H 91.757537 A 12.031249,12.031249 45 0 1 79.726288,169.78358 v -45.94107 a 12.031249,12.031249 135 0 1 12.031249,-12.03125 z"
       inkscape:label="Obrys zewnętrzny"
       transform="matrix(0.5,0,0,0.5,57.364037,73.406521)" />
    <path
       id="path2"
       style="fill:#542034;fill-opacity:1;stroke:#000000;stroke-width:0.161;stroke-dashoffset:87.1374"
       sodipodi:type="inkscape:offset"
       inkscape:radius="-3.4368994"
       inkscape:original="M 91.757812 111.81055 C 85.0925 111.81055 79.726562 117.17648 79.726562 123.8418 L 79.726562 169.7832 C 79.726562 176.44852 85.0925 181.81445 91.757812 181.81445 L 137.69922 181.81445 C 144.36453 181.81445 149.73047 176.44852 149.73047 169.7832 L 149.73047 123.8418 C 149.73047 117.17648 144.36453 111.81055 137.69922 111.81055 L 91.757812 111.81055 z "
       d="m 91.757812,115.24805 c -4.820721,0 -8.59375,3.77302 -8.59375,8.59375 v 45.9414 c 0,4.82073 3.773029,8.59375 8.59375,8.59375 h 45.941408 c 4.82072,0 8.59375,-3.77302 8.59375,-8.59375 v -45.9414 c 0,-4.82073 -3.77303,-8.59375 -8.59375,-8.59375 z"
       inkscape:label="Obrys wewnętrzny"
       transform="matrix(0.5,0,0,0.5,57.364037,73.406521)" />
    <path
       id="path20"
       style="fill:#542034;stroke:#ffffff;stroke-width:1.26636;stroke-linecap:round;stroke-linejoin:round;stroke-dasharray:none;stroke-dashoffset:87.1374"
       d="m 114.34252,134.70206 c -1.13584,1.59509 -0.99732,2.60849 -0.99732,2.60849 l 0.18062,1.24926 c -0.7179,0.10397 -1.41935,0.29947 -2.08757,0.58177 l -0.49081,-1.16223 c 0,0 -0.4056,-0.93953 -2.20274,-1.71718 -0.33252,0.18635 -0.6561,0.38821 -0.96984,0.60468 -0.0932,1.95596 0.5713,2.73346 0.5713,2.73346 l 0.82718,0.95283 c -0.54769,0.47565 -1.03214,1.01962 -1.44167,1.61835 l -1.04116,-0.71265 c 0,0 -0.84897,-0.57066 -2.78124,-0.25325 -0.17898,0.33655 -0.34196,0.68092 -0.48885,1.03265 0.97909,1.69582 1.95865,1.99072 1.95865,1.99072 l 1.21065,0.35404 c -0.20359,0.69624 -0.3169,1.41612 -0.33767,2.14122 l -1.26104,-0.0366 c 0,0 -1.02301,-0.0211 -2.47694,1.2905 0.0314,0.37987 0.0807,0.75813 0.14724,1.13344 1.7405,0.89728 2.72365,0.6158 2.72365,0.6158 l 1.21,-0.35665 c 0.20516,0.69579 0.49913,1.36228 0.87364,1.98351 l -1.08109,0.6518 c 0,0 -0.87141,0.53507 -1.38539,2.42458 0.23179,0.30261 0.47728,0.5939 0.73622,0.87364 1.9493,-0.18614 2.62418,-0.95478 2.62418,-0.95478 l 0.82522,-0.95413 c 0.54875,0.47443 1.15654,0.87676 1.80747,1.19691 l -0.55689,1.13213 c 0,0 -0.44456,0.921 0.14461,2.78843 0.35859,0.12926 0.72316,0.24232 1.09222,0.33768 1.53922,-1.21046 1.69165,-2.22237 1.69165,-2.22237 l 0.178,-1.24927 c 0.71813,0.10245 1.44671,0.11271 2.1674,0.0301 l 0.14331,1.25385 c 0,0 0.12423,1.01508 1.62948,2.26753 0.37155,-0.0851 0.73935,-0.18762 1.10138,-0.30691 0.64043,-1.85048 0.22184,-2.78387 0.22184,-2.78387 l -0.52549,-1.14718 c 0.65952,-0.30208 1.27726,-0.68742 1.83889,-1.14653 l 0.79904,0.97704 c 0,0 0.65326,0.78694 2.5967,1.02676 0.26654,-0.27248 0.52039,-0.55724 0.76042,-0.85335 -0.46167,-1.90297 -1.31864,-2.46187 -1.31864,-2.46187 l -1.06211,-0.6806 c 0.39151,-0.61067 0.70305,-1.26942 0.9273,-1.9593 l 1.20019,0.39003 c 0,0 0.97543,0.30905 2.74001,-0.53989 0.0769,-0.37333 0.13621,-0.75065 0.178,-1.12951 -1.41721,-1.35186 -2.44029,-1.3579 -2.44029,-1.3579 l -1.2617,10e-4 c -8.1e-4,-0.72541 -0.0945,-1.44749 -0.27879,-2.14908 l 1.22048,-0.32066 c 0,0 0.98747,-0.26757 2.01297,-1.93575 -0.13715,-0.35564 -0.29109,-0.70505 -0.46071,-1.04639 -1.92279,-0.37058 -2.78712,0.17668 -2.78712,0.17668 l -1.06081,0.68321 c -0.39286,-0.60981 -0.86215,-1.1664 -1.3965,-1.65697 l 0.85335,-0.92991 c 0,0 0.68568,-0.75867 0.64655,-2.71646 -0.30765,-0.22506 -0.62557,-0.43606 -0.95282,-0.63151 -1.8179,0.7278 -2.24855,1.65566 -2.24855,1.65566 l -0.52288,1.1485 c -0.66018,-0.30061 -1.35645,-0.51551 -2.07121,-0.63936 l 0.21531,-1.24338 c 0,0 0.16674,-1.00886 -0.92468,-2.63466 -0.38048,-0.0234 -0.76163,-0.029 -1.1426,-0.0163 z m 0.3861,7.07352 a 5.0372409,5.0372409 0 0 1 5.03699,5.03764 5.0372409,5.0372409 0 0 1 -5.03699,5.037 5.0372409,5.0372409 0 0 1 -5.03765,-5.037 5.0372409,5.0372409 0 0 1 5.03765,-5.03764 z"
       inkscape:label="Zebatka" />
  </g>
  <g
     inkscape:label="UstawieniaHower"
     inkscape:groupmode="layer"
     id="layer1"
     transform="matrix(1.0958142,-0.09587132,0.09587132,1.0958142,-119.44713,-129.532)"
     style="display:none">
    <path
       style="display:inline;fill:#ffffff;fill-opacity:1;stroke:#000000;stroke-width:0.161;stroke-dashoffset:87.1374"
       id="rect2"
       width="70.003571"
       height="70.003571"
       x="79.726288"
       y="111.81126"
       ry="0"
       inkscape:path-effect="#path-effect3"
       sodipodi:type="rect"
       rx="0"
       d="m 91.757537,111.81126 h 45.941073 a 12.031249,12.031249 45 0 1 12.03125,12.03125 v 45.94107 a 12.031249,12.031249 135 0 1 -12.03125,12.03125 H 91.757537 A 12.031249,12.031249 45 0 1 79.726288,169.78358 v -45.94107 a 12.031249,12.031249 135 0 1 12.031249,-12.03125 z"
       inkscape:label="Obrys zewnętrzny"
       transform="matrix(0.5,0,0,0.5,57.364037,73.406521)" />
    <path
       id="rect3"
       style="display:inline;fill:#542034;fill-opacity:1;stroke:#000000;stroke-width:0.161;stroke-dashoffset:87.1374"
       sodipodi:type="inkscape:offset"
       inkscape:radius="-3.4368994"
       inkscape:original="M 91.757812 111.81055 C 85.0925 111.81055 79.726562 117.17648 79.726562 123.8418 L 79.726562 169.7832 C 79.726562 176.44852 85.0925 181.81445 91.757812 181.81445 L 137.69922 181.81445 C 144.36453 181.81445 149.73047 176.44852 149.73047 169.7832 L 149.73047 123.8418 C 149.73047 117.17648 144.36453 111.81055 137.69922 111.81055 L 91.757812 111.81055 z "
       d="m 91.757812,115.24805 c -4.820721,0 -8.59375,3.77302 -8.59375,8.59375 v 45.9414 c 0,4.82073 3.773029,8.59375 8.59375,8.59375 h 45.941408 c 4.82072,0 8.59375,-3.77302 8.59375,-8.59375 v -45.9414 c 0,-4.82073 -3.77303,-8.59375 -8.59375,-8.59375 z"
       inkscape:label="Obrys wewnętrzny"
       transform="matrix(0.5,0,0,0.5,57.364037,73.406521)" />
    <path
       id="path21"
       style="display:inline;fill:#542034;stroke:#ffffff;stroke-width:1.26636;stroke-linecap:round;stroke-linejoin:round;stroke-dasharray:none;stroke-dashoffset:87.1374"
       d="m 114.33256,134.69468 c -1.13584,1.59509 -0.99732,2.60849 -0.99732,2.60849 l 0.18062,1.24925 c -0.7179,0.10395 -1.41935,0.29948 -2.08757,0.58177 l -0.49082,-1.16222 c 0,0 -0.40559,-0.93954 -2.20273,-1.71718 -0.33252,0.18635 -0.6561,0.38821 -0.96984,0.60468 -0.0932,1.95595 0.57131,2.73346 0.57131,2.73346 l 0.82717,0.95283 c -0.54769,0.47565 -1.03214,1.01962 -1.44167,1.61835 l -1.04116,-0.71266 c 0,0 -0.84897,-0.57066 -2.78124,-0.25324 -0.17898,0.33655 -0.34196,0.68092 -0.48885,1.03265 0.97909,1.69581 1.95865,1.99072 1.95865,1.99072 l 1.21065,0.35404 c -0.20359,0.69624 -0.3169,1.41612 -0.33767,2.14121 l -1.26104,-0.0366 c 0,0 -1.02301,-0.0211 -2.47693,1.2905 0.0314,0.37988 0.0807,0.75813 0.14723,1.13344 1.7405,0.89728 2.72366,0.6158 2.72366,0.6158 l 1.21,-0.35665 c 0.20515,0.69579 0.49912,1.36228 0.87363,1.98351 l -1.08109,0.6518 c 0,0 -0.87141,0.53508 -1.38539,2.42458 0.23179,0.30261 0.47728,0.5939 0.73622,0.87364 1.9493,-0.18614 2.62418,-0.95478 2.62418,-0.95478 l 0.82522,-0.95412 c 0.54875,0.47443 1.15654,0.87675 1.80747,1.19691 l -0.55689,1.13213 c 0,0 -0.44456,0.92099 0.14461,2.78842 0.35859,0.12926 0.72316,0.24233 1.09222,0.33769 1.53922,-1.21046 1.69165,-2.22238 1.69165,-2.22238 l 0.178,-1.24927 c 0.71813,0.10241 1.44671,0.11271 2.16739,0.0301 l 0.14332,1.25386 c 0,0 0.12423,1.01508 1.62948,2.26753 0.37154,-0.0851 0.73935,-0.18763 1.10138,-0.30691 0.64043,-1.85049 0.22184,-2.78387 0.22184,-2.78387 l -0.52549,-1.14718 c 0.65951,-0.30208 1.27726,-0.68742 1.83889,-1.14653 l 0.79904,0.97704 c 0,0 0.65326,0.78694 2.5967,1.02675 0.26653,-0.27248 0.52039,-0.55723 0.76042,-0.85334 -0.46167,-1.90297 -1.31864,-2.46187 -1.31864,-2.46187 l -1.06211,-0.6806 c 0.39151,-0.61067 0.70304,-1.26942 0.9273,-1.9593 l 1.20019,0.39003 c 0,0 0.97542,0.30905 2.74001,-0.53989 0.0769,-0.37333 0.13621,-0.75065 0.178,-1.12952 -1.41721,-1.35185 -2.44029,-1.35789 -2.44029,-1.35789 l -1.2617,0.001 c -8.2e-4,-0.72541 -0.0945,-1.44749 -0.27879,-2.14908 l 1.22048,-0.32066 c 0,0 0.98747,-0.26757 2.01297,-1.93575 -0.13715,-0.35564 -0.29109,-0.70506 -0.46071,-1.0464 -1.92279,-0.37058 -2.78712,0.17669 -2.78712,0.17669 l -1.06081,0.68321 c -0.39287,-0.60981 -0.86215,-1.1664 -1.39651,-1.65697 l 0.85336,-0.92992 c 0,0 0.68568,-0.75867 0.64655,-2.71645 -0.30765,-0.22506 -0.62557,-0.43606 -0.95282,-0.63151 -1.8179,0.7278 -2.24855,1.65566 -2.24855,1.65566 l -0.52288,1.1485 c -0.66019,-0.30061 -1.35645,-0.51551 -2.07121,-0.63937 l 0.21531,-1.24337 c 0,0 0.16674,-1.00887 -0.92468,-2.63467 -0.38048,-0.0234 -0.76163,-0.029 -1.1426,-0.0163 z m 0.3861,7.07352 a 5.0372408,5.0372408 0 0 1 5.03699,5.03763 5.0372408,5.0372408 0 0 1 -5.03699,5.037 5.0372408,5.0372408 0 0 1 -5.03765,-5.037 5.0372408,5.0372408 0 0 1 5.03765,-5.03763 z"
       inkscape:label="Zebatka" />
  </g>
  <g
     inkscape:label="UstawieniaPressed"
     inkscape:groupmode="layer"
     id="g20"
     transform="matrix(1.0958142,-0.09587132,0.09587132,1.0958142,-119.44713,-129.532)"
     style="display:none">
    <path
       style="fill:#ffffff;fill-opacity:1;stroke:#000000;stroke-width:0.161;stroke-dashoffset:87.1374"
       id="path16"
       width="70.003571"
       height="70.003571"
       x="79.726288"
       y="111.81126"
       ry="0"
       inkscape:path-effect="#path-effect21"
       sodipodi:type="rect"
       rx="0"
       d="m 91.757537,111.81126 h 45.941073 a 12.031249,12.031249 45 0 1 12.03125,12.03125 v 45.94107 a 12.031249,12.031249 135 0 1 -12.03125,12.03125 H 91.757537 A 12.031249,12.031249 45 0 1 79.726288,169.78358 v -45.94107 a 12.031249,12.031249 135 0 1 12.031249,-12.03125 z"
       inkscape:label="Obrys zewnętrzny"
       transform="matrix(0.5,0,0,0.5,57.364037,73.406521)" />
    <path
       id="path17"
       style="fill:#843252;fill-opacity:1;stroke:#000000;stroke-width:0.161;stroke-dashoffset:87.1374"
       sodipodi:type="inkscape:offset"
       inkscape:radius="-3.4368994"
       inkscape:original="M 91.757812 111.81055 C 85.0925 111.81055 79.726562 117.17648 79.726562 123.8418 L 79.726562 169.7832 C 79.726562 176.44852 85.0925 181.81445 91.757812 181.81445 L 137.69922 181.81445 C 144.36453 181.81445 149.73047 176.44852 149.73047 169.7832 L 149.73047 123.8418 C 149.73047 117.17648 144.36453 111.81055 137.69922 111.81055 L 91.757812 111.81055 z "
       d="m 91.757812,115.24805 c -4.820721,0 -8.59375,3.77302 -8.59375,8.59375 v 45.9414 c 0,4.82073 3.773029,8.59375 8.59375,8.59375 h 45.941408 c 4.82072,0 8.59375,-3.77302 8.59375,-8.59375 v -45.9414 c 0,-4.82073 -3.77303,-8.59375 -8.59375,-8.59375 z"
       inkscape:label="Obrys wewnętrzny"
       transform="matrix(0.5,0,0,0.5,57.364037,73.406521)" />
    <path
       id="path22"
       style="display:inline;fill:#843252;fill-opacity:1;stroke:#ffffff;stroke-width:1.26636;stroke-linecap:round;stroke-linejoin:round;stroke-dasharray:none;stroke-dashoffset:87.1374"
       d="m 114.33244,134.69467 c -1.13584,1.59509 -0.99732,2.60849 -0.99732,2.60849 l 0.18062,1.24925 c -0.7179,0.10395 -1.41934,0.29948 -2.08757,0.58177 l -0.49082,-1.16222 c 0,0 -0.40559,-0.93954 -2.20272,-1.71718 -0.33252,0.18635 -0.6561,0.38821 -0.96985,0.60468 -0.0932,1.95595 0.57131,2.73346 0.57131,2.73346 l 0.82717,0.95283 c -0.54769,0.47565 -1.03214,1.01962 -1.44167,1.61835 l -1.04115,-0.71266 c 0,0 -0.84898,-0.57066 -2.78125,-0.25324 -0.17898,0.33655 -0.34196,0.68092 -0.48884,1.03265 0.97909,1.69581 1.95864,1.99073 1.95864,1.99073 l 1.21065,0.35403 c -0.20359,0.69623 -0.31692,1.41611 -0.33765,2.14122 l -1.26104,-0.0366 c 0,0 -1.02301,-0.0211 -2.47692,1.29051 0.0314,0.37987 0.0807,0.75813 0.14722,1.13343 1.7405,0.89729 2.72366,0.6158 2.72366,0.6158 l 1.21,-0.35665 c 0.20516,0.6958 0.49912,1.36228 0.87363,1.98351 l -1.08108,0.6518 c 0,0 -0.87142,0.53508 -1.3854,2.42459 0.2318,0.30261 0.47729,0.59389 0.73622,0.87363 1.9493,-0.18613 2.62419,-0.95478 2.62419,-0.95478 l 0.82521,-0.95412 c 0.54876,0.47443 1.15654,0.87675 1.80747,1.19691 l -0.55689,1.13213 c 0,0 -0.44455,0.92099 0.14461,2.78842 0.3586,0.12924 0.72316,0.24233 1.09223,0.3377 1.53921,-1.21046 1.69164,-2.22239 1.69164,-2.22239 l 0.17804,-1.24926 c 0.71813,0.10236 1.4467,0.11271 2.16739,0.0301 l 0.14331,1.25386 c 0,0 0.12423,1.01508 1.62949,2.26753 0.37153,-0.0851 0.73934,-0.18763 1.10137,-0.30691 0.64044,-1.85049 0.22184,-2.78387 0.22184,-2.78387 l -0.52549,-1.14718 c 0.65952,-0.30208 1.27726,-0.68742 1.83889,-1.14653 l 0.79904,0.97704 c 0,0 0.65326,0.78694 2.5967,1.02675 0.26653,-0.27248 0.52039,-0.55723 0.76042,-0.85334 -0.46167,-1.90297 -1.31864,-2.46187 -1.31864,-2.46187 l -1.06211,-0.6806 c 0.39151,-0.61068 0.70305,-1.26942 0.9273,-1.95931 l 1.20019,0.39004 c 0,0 0.97542,0.30904 2.74001,-0.53989 0.0769,-0.37333 0.13642,-0.75062 0.17805,-1.12952 -1.41722,-1.35184 -2.4403,-1.35789 -2.4403,-1.35789 l -1.26169,0.001 c -8.3e-4,-0.72541 -0.0945,-1.44749 -0.2788,-2.14908 l 1.22048,-0.32065 c 0,0 0.98747,-0.26758 2.01297,-1.93575 -0.13715,-0.35564 -0.29109,-0.70506 -0.46071,-1.0464 -1.92278,-0.37062 -2.78712,0.17668 -2.78712,0.17668 l -1.0608,0.68322 c -0.39288,-0.60981 -0.86216,-1.16641 -1.39652,-1.65698 l 0.85336,-0.92991 c 0,0 0.68568,-0.75867 0.64655,-2.71646 -0.30765,-0.22505 -0.62557,-0.43605 -0.95282,-0.63151 -1.8179,0.7278 -2.24855,1.65567 -2.24855,1.65567 l -0.52287,1.1485 c -0.66019,-0.30062 -1.35645,-0.51552 -2.07121,-0.63938 l 0.21518,-1.24339 c 0,0 0.16672,-1.00887 -0.92469,-2.63467 -0.38047,-0.0234 -0.76163,-0.029 -1.14259,-0.0163 z m 0.3861,7.07352 a 5.0372408,5.0372408 0 0 1 5.03699,5.03763 5.0372408,5.0372408 0 0 1 -5.03699,5.037 5.0372408,5.0372408 0 0 1 -5.03765,-5.037 5.0372408,5.0372408 0 0 1 5.03765,-5.03763 z"
       inkscape:label="Zebatka" />
  </g>
</svg>
