<?xml version='1.0' encoding='utf-8'?>
<svg xmlns="http://www.w3.org/2000/svg" enable-background="new 0 0 500 500" version="1.1" viewBox="0 0 500 500"> <style type="text/css">.st0{fill:#F9E3E3;} .st1{fill:#F3C6C6;} .st2{fill:#EEAAAA;} .st3{fill:#73727E;} .st4{fill:#989FA2;} .st5{fill:#AA5555;} .st6{fill:#E27171;} .st7{fill:#E88D8D;} .st8{fill:none;} .st9{font-family:'MyriadPro-Regular';} .st10{font-size:163.856px;}</style> <path class="st0" d="m188.6 380.3h130.5c45.2-23.6 76.1-70.9 76.1-125.4 0-78.1-63.3-141.3-141.3-141.3s-141.3 63.3-141.3 141.3c-0.1 54.5 30.8 101.8 76 125.4z"/> <circle class="st1" cx="253.9" cy="254.9" r="124.1"/> <circle class="st2" cx="253.9" cy="254.9" r="105.1"/> <path class="st3" d="m356.5 383.2h-205.2c-1.4 0-2.5-1.1-2.5-2.5v-12.1c0-1.4 1.1-2.5 2.5-2.5h205.2c1.4 0 2.5 1.1 2.5 2.5v12.1c0 1.4-1.2 2.5-2.5 2.5z"/> <path class="st4" d="m344.4 332h-180.4c-1.8 0-3.3 1.5-3.3 3.3v30.9h186.9v-30.9c0-1.8-1.4-3.3-3.2-3.3z"/> <path class="st5" d="m263 174.6c17.2 15 28.1 37 28.1 61.6v95.8h44.8v-76.2c-0.1-42.1-32-76.8-72.9-81.2z"/> <path class="st6" d="m263 174.6c-2.9-0.3-5.8-0.5-8.8-0.5-45.1 0-81.7 36.6-81.7 81.7v76.2h118.5v-95.8c0-24.6-10.8-46.6-28-61.6z"/> <path class="st7" d="m139.3 262.6h-52.6c-1 0-1.8-0.8-1.8-1.8v-8.9c0-1 0.8-1.8 1.8-1.8h52.6c1 0 1.8 0.8 1.8 1.8v8.9c0 0.9-0.8 1.8-1.8 1.8z"/> <path class="st2" d="m140.6 194.4-22.7-11.9c-0.6-0.3-0.9-1.1-0.5-1.7l2.8-5.4c0.3-0.6 1.1-0.9 1.7-0.5l22.7 11.9c0.6 0.3 0.9 1.1 0.5 1.7l-2.8 5.4c-0.4 0.6-1.1 0.8-1.7 0.5z"/> <path class="st2" d="m184.3 146.1-12.8-22.2c-0.3-0.6-0.1-1.4 0.5-1.7l5.3-3.1c0.6-0.3 1.4-0.1 1.7 0.5l12.8 22.2c0.3 0.6 0.1 1.4-0.5 1.7l-5.3 3.1c-0.5 0.3-1.3 0.1-1.7-0.5z"/> <path class="st2" d="m317.9 141.1 11.9-22.7c0.3-0.6 1.1-0.9 1.7-0.5l5.4 2.8c0.6 0.3 0.9 1.1 0.5 1.7l-11.9 22.7c-0.3 0.6-1.1 0.9-1.7 0.5l-5.4-2.8c-0.6-0.3-0.8-1.1-0.5-1.7z"/> <path class="st2" d="m366.2 184.8 22.2-12.8c0.6-0.3 1.4-0.1 1.7 0.5l3.1 5.3c0.3 0.6 0.1 1.4-0.5 1.7l-22.2 12.8c-0.6 0.3-1.4 0.1-1.7-0.5l-3.1-5.3c-0.4-0.5-0.2-1.3 0.5-1.7z"/> <path class="st7" d="m247.9 139.8v-52.6c0-1 0.8-1.8 1.8-1.8h8.9c1 0 1.8 0.8 1.8 1.8v52.6c0 1-0.8 1.8-1.8 1.8h-8.9c-1 0.1-1.8-0.7-1.8-1.8z"/> <path class="st7" d="m421.5 262.6h-52.6c-1 0-1.8-0.8-1.8-1.8v-8.9c0-1 0.8-1.8 1.8-1.8h52.6c1 0 1.8 0.8 1.8 1.8v8.9c0 0.9-0.8 1.8-1.8 1.8z"/> <rect class="st8" x="213.2" y="201.9" width="81.9" height="149.6"/> <text class="st1 st9 st10" transform="translate(235.35 318.26)">!</text> </svg>